<?xml version="1.0" standalone="no"?>
<!DOCTYPE svg PUBLIC "-//W3C//DTD SVG 20010904//EN"
 "http://www.w3.org/TR/2001/REC-SVG-20010904/DTD/svg10.dtd">
<svg version="1.0" xmlns="http://www.w3.org/2000/svg"
 width="215.000000pt" height="215.000000pt" viewBox="0 0 215.000000 215.000000"
 preserveAspectRatio="xMidYMid meet">
<metadata>
Created by potrace 1.11, written by Peter Selinger 2001-2013
</metadata>
<g transform="translate(0.000000,215.000000) scale(0.100000,-0.100000)"
fill="#000000" stroke="none">
<path d="M1401 2128 c-7 -20 -181 -1332 -181 -1364 0 -8 -91 -13 -312 -17
-188 -3 -367 -12 -448 -21 -128 -15 -405 -60 -442 -72 -15 -4 -18 -18 -18 -83
l0 -78 56 -74 c31 -41 73 -91 93 -112 48 -52 193 -148 311 -207 90 -45 102
-49 235 -64 248 -28 490 -39 750 -33 289 7 424 20 480 47 46 22 124 94 183
169 l42 53 0 119 0 119 -42 21 c-24 12 -44 23 -46 24 -2 2 2 22 8 46 17 63 5
69 -151 69 -114 0 -140 4 -255 35 -91 25 -148 35 -199 35 -40 0 -93 3 -118 6
-44 6 -45 7 -41 38 2 17 25 186 49 376 56 427 55 421 66 414 26 -16 110 -3
185 27 99 41 178 44 241 11 53 -28 69 -28 76 1 3 12 20 121 38 241 l32 219
-32 29 c-28 25 -38 28 -104 28 -82 -1 -131 -16 -182 -54 -47 -36 -94 -43 -150
-21 -38 14 -45 21 -45 44 0 33 -16 51 -47 51 -15 0 -26 -8 -32 -22z m159 -168
c0 -5 -2 -10 -4 -10 -3 0 -8 5 -11 10 -3 6 -1 10 4 10 6 0 11 -4 11 -10z m170
-9 c0 -6 -5 -13 -12 -17 -7 -5 -8 -3 -3 6 6 10 4 12 -9 7 -10 -4 -15 -3 -11 3
8 13 35 13 35 1z m86 -55 c0 -19 -4 -37 -7 -41 -4 -3 -6 11 -5 32 1 21 -2 45
-8 53 -9 13 -9 13 5 2 10 -8 16 -26 15 -46z m-246 34 c8 -5 11 -10 5 -10 -5 0
-17 5 -25 10 -8 5 -10 10 -5 10 6 0 17 -5 25 -10z m290 4 c0 -8 -19 -13 -24
-6 -3 5 1 9 9 9 8 0 15 -2 15 -3z m-342 -13 c11 -7 10 -9 -3 -14 -9 -4 -13 -3
-10 3 3 6 2 10 -4 10 -5 0 -12 -6 -14 -12 -3 -8 -6 -6 -6 5 -1 18 16 22 37 8z
m84 -45 c-9 -19 -18 -30 -20 -26 -3 8 26 60 34 60 2 0 -4 -15 -14 -34z m18
-76 c0 -15 -5 -12 -26 11 -19 22 -19 22 4 10 12 -6 22 -16 22 -21z m91 13 c13
-16 12 -17 -3 -4 -10 7 -18 15 -18 17 0 8 8 3 21 -13z m124 -33 c10 -11 16
-20 13 -20 -3 0 -13 9 -23 20 -10 11 -16 20 -13 20 3 0 13 -9 23 -20z m-265
-10 c0 -5 -8 -10 -17 -10 -15 0 -16 2 -3 10 19 12 20 12 20 0z m120 0 c0 -5
-5 -10 -11 -10 -5 0 -7 5 -4 10 3 6 8 10 11 10 2 0 4 -4 4 -10z m-38 -30 c-2
-16 -6 -30 -8 -30 -2 0 -4 14 -4 30 0 17 4 30 8 30 5 0 7 -13 4 -30z m85 8
c-3 -8 -6 -5 -6 6 -1 11 2 17 5 13 3 -3 4 -12 1 -19z m-222 -8 c-3 -5 0 -10 7
-10 10 0 9 -3 -2 -10 -9 -5 -19 -5 -27 1 -7 6 -18 7 -24 3 -8 -5 -9 -3 -5 5 5
7 14 10 22 7 7 -3 16 -1 19 4 4 6 8 10 11 10 3 0 2 -4 -1 -10z m322 -5 c0 -8
-4 -15 -9 -15 -10 0 -11 14 -1 23 9 10 10 9 10 -8z m-354 -40 c-3 -9 -8 -14
-10 -11 -3 3 -2 9 2 15 9 16 15 13 8 -4z"/>
</g>
</svg>
